<svg xmlns="http://www.w3.org/2000/svg" xmlns:xlink="http://www.w3.org/1999/xlink" preserveAspectRatio="xMidYMid" width="13" height="17.03" viewBox="0 0 13 17.03">
  <defs>
    <style>
      .cls-1 {
        fill: #656565;
        fill-rule: evenodd;
      }
    </style>
  </defs>
  <path d="M0.112,7.192 C0.186,7.564 0.296,7.932 0.442,8.297 C0.588,8.662 0.795,8.984 1.062,9.264 C1.330,9.544 1.637,9.735 1.983,9.837 C2.084,9.858 2.142,9.868 2.155,9.868 C2.304,9.868 2.430,9.714 2.532,9.407 C2.633,9.100 2.684,8.851 2.684,8.660 C2.684,8.599 2.642,8.495 2.557,8.348 C2.472,8.202 2.381,8.046 2.282,7.883 C2.184,7.719 2.093,7.497 2.008,7.217 C1.923,6.938 1.881,6.648 1.881,6.348 C1.881,4.990 2.335,3.870 3.243,2.986 C4.151,2.103 5.283,1.661 6.639,1.661 C7.832,1.661 8.799,1.990 9.542,2.649 C10.284,3.307 10.655,4.226 10.655,5.406 C10.655,5.727 10.633,6.066 10.589,6.425 C10.545,6.783 10.477,7.161 10.385,7.560 C10.294,7.959 10.165,8.336 9.999,8.691 C9.833,9.046 9.643,9.370 9.430,9.663 C9.216,9.957 8.950,10.188 8.632,10.359 C8.313,10.530 7.967,10.615 7.595,10.615 C7.161,10.615 6.791,10.473 6.486,10.190 C6.181,9.907 6.029,9.551 6.029,9.121 C6.029,8.698 6.178,8.060 6.476,7.207 C6.774,6.355 6.924,5.703 6.924,5.253 C6.924,4.830 6.808,4.480 6.578,4.204 C6.347,3.928 6.025,3.790 5.612,3.790 C5.070,3.790 4.622,4.039 4.270,4.537 C3.918,5.035 3.741,5.567 3.741,6.133 C3.741,6.842 3.850,7.419 4.067,7.862 C4.019,8.067 3.843,8.759 3.538,9.939 C3.233,11.120 3.008,12.100 2.862,12.881 C2.716,13.662 2.643,14.367 2.643,14.994 C2.643,15.206 2.694,15.847 2.796,16.918 L2.887,17.021 L3.030,16.969 C3.280,16.628 3.491,16.333 3.660,16.084 C3.829,15.835 3.985,15.571 4.128,15.291 C4.270,15.011 4.378,14.798 4.453,14.652 C4.528,14.505 4.616,14.263 4.717,13.925 C4.819,13.587 4.889,13.345 4.926,13.199 C4.963,13.052 5.043,12.728 5.165,12.226 C5.287,11.725 5.382,11.341 5.449,11.075 C5.646,11.457 5.971,11.757 6.425,11.976 C6.879,12.194 7.337,12.303 7.798,12.303 C8.496,12.303 9.137,12.172 9.720,11.909 C10.302,11.647 10.794,11.295 11.194,10.855 C11.594,10.415 11.932,9.905 12.210,9.325 C12.488,8.746 12.692,8.142 12.820,7.514 C12.949,6.887 13.014,6.245 13.014,5.590 C13.014,4.499 12.725,3.520 12.149,2.654 C11.573,1.787 10.824,1.127 9.903,0.674 C8.981,0.220 7.984,-0.007 6.913,-0.007 C6.215,-0.007 5.531,0.082 4.860,0.259 C4.189,0.437 3.562,0.703 2.979,1.057 C2.396,1.412 1.881,1.832 1.434,2.316 C0.986,2.801 0.635,3.368 0.381,4.020 C0.127,4.671 0.000,5.365 0.000,6.102 C0.000,6.457 0.037,6.820 0.112,7.192 Z" class="cls-1"/>
</svg>
