<svg xmlns="http://www.w3.org/2000/svg" xmlns:xlink="http://www.w3.org/1999/xlink" preserveAspectRatio="xMidYMid" width="15.969" height="13" viewBox="0 0 15.969 13">
  <defs>
    <style>
      .cls-1 {
        fill: #656565;
        fill-rule: evenodd;
      }
    </style>
  </defs>
  <path d="M14.089,2.040 C14.799,1.613 15.279,1.010 15.529,0.230 C14.880,0.617 14.187,0.881 13.450,1.024 C12.801,0.332 12.003,-0.014 11.056,-0.014 C10.150,-0.014 9.377,0.307 8.738,0.947 C8.099,1.588 7.780,2.362 7.780,3.270 C7.780,3.514 7.807,3.765 7.861,4.023 C6.522,3.955 5.266,3.618 4.092,3.011 C2.919,2.405 1.923,1.596 1.105,0.586 C0.807,1.095 0.659,1.647 0.659,2.243 C0.659,2.806 0.791,3.328 1.054,3.809 C1.318,4.291 1.673,4.680 2.119,4.978 C1.592,4.958 1.098,4.819 0.638,4.562 L0.638,4.602 C0.638,5.395 0.887,6.092 1.384,6.692 C1.881,7.291 2.508,7.669 3.266,7.825 C2.982,7.900 2.694,7.937 2.403,7.937 C2.214,7.937 2.008,7.920 1.785,7.886 C1.994,8.544 2.380,9.084 2.941,9.508 C3.502,9.931 4.138,10.150 4.848,10.163 C3.658,11.099 2.302,11.566 0.780,11.566 C0.490,11.566 0.226,11.553 -0.011,11.526 C1.511,12.509 3.188,13.000 5.021,13.000 C6.184,13.000 7.276,12.815 8.297,12.446 C9.318,12.077 10.190,11.582 10.914,10.961 C11.638,10.341 12.261,9.628 12.786,8.821 C13.310,8.015 13.700,7.173 13.957,6.295 C14.214,5.417 14.343,4.538 14.343,3.657 C14.343,3.467 14.339,3.325 14.332,3.230 C14.975,2.762 15.523,2.196 15.976,1.532 C15.347,1.803 14.718,1.972 14.089,2.040 L14.089,2.040 Z" class="cls-1"/>
</svg>
