<svg xmlns="http://www.w3.org/2000/svg" xmlns:xlink="http://www.w3.org/1999/xlink" preserveAspectRatio="xMidYMid" width="10" height="18" viewBox="0 0 10 18">
  <defs>
    <style>
      .cls-1 {
        fill: #656565;
        fill-rule: evenodd;
      }
    </style>
  </defs>
  <path d="M7.361,-0.007 C6.024,-0.007 4.954,0.362 4.150,1.102 C3.346,1.841 2.944,2.881 2.944,4.222 L2.944,6.580 L-0.012,6.580 L-0.012,9.782 L2.944,9.782 L2.944,17.992 L6.492,17.992 L6.492,9.782 L9.436,9.782 L9.888,6.580 L6.492,6.580 L6.492,4.536 C6.492,4.017 6.608,3.627 6.839,3.368 C7.071,3.108 7.519,2.978 8.184,2.978 L10.004,2.978 L10.004,0.123 C9.378,0.036 8.497,-0.007 7.361,-0.007 L7.361,-0.007 Z" class="cls-1"/>
</svg>
