<svg xmlns="http://www.w3.org/2000/svg" xmlns:xlink="http://www.w3.org/1999/xlink" preserveAspectRatio="xMidYMid" width="16" height="16.03" viewBox="0 0 16 16.03">
  <defs>
    <style>
      .cls-1 {
        fill: #656565;
        fill-rule: evenodd;
      }
    </style>
  </defs>
  <path d="M14.006,13.994 C13.881,14.116 13.732,14.176 13.558,14.176 L2.418,14.176 C2.237,14.176 2.086,14.116 1.964,13.994 C1.843,13.872 1.782,13.721 1.782,13.541 L1.782,6.788 L3.251,6.788 C3.112,7.225 3.043,7.680 3.043,8.153 C3.043,9.487 3.529,10.624 4.502,11.566 C5.475,12.507 6.645,12.978 8.014,12.978 C8.917,12.978 9.751,12.763 10.515,12.332 C11.279,11.901 11.884,11.316 12.328,10.576 C12.773,9.836 12.995,9.028 12.995,8.153 C12.995,7.680 12.926,7.225 12.787,6.788 L14.194,6.788 L14.194,13.541 C14.194,13.721 14.131,13.872 14.006,13.994 ZM8.014,11.102 C7.131,11.102 6.376,10.798 5.747,10.190 C5.118,9.582 4.804,8.848 4.804,7.986 C4.804,7.125 5.118,6.390 5.747,5.782 C6.376,5.174 7.131,4.870 8.014,4.870 C8.903,4.870 9.662,5.174 10.291,5.782 C10.920,6.390 11.234,7.125 11.234,7.986 C11.234,8.848 10.920,9.582 10.291,10.190 C9.662,10.798 8.903,11.102 8.014,11.102 L8.014,11.102 ZM13.985,4.745 C13.846,4.884 13.676,4.954 13.475,4.954 L11.661,4.954 C11.460,4.954 11.290,4.884 11.151,4.745 C11.012,4.606 10.942,4.436 10.942,4.235 L10.942,2.515 C10.942,2.321 11.012,2.152 11.151,2.010 C11.290,1.867 11.460,1.796 11.661,1.796 L13.475,1.796 C13.676,1.796 13.846,1.867 13.985,2.010 C14.124,2.152 14.194,2.321 14.194,2.515 L14.194,4.235 C14.194,4.436 14.124,4.606 13.985,4.745 ZM15.403,0.618 C15.000,0.215 14.517,0.014 13.954,0.014 L2.053,0.014 C1.490,0.014 1.007,0.215 0.604,0.618 C0.201,1.021 -0.000,1.504 -0.000,2.067 L-0.000,13.968 C-0.000,14.531 0.201,15.013 0.604,15.416 C1.007,15.819 1.490,16.021 2.053,16.021 L13.954,16.021 C14.517,16.021 15.000,15.819 15.403,15.416 C15.805,15.013 16.007,14.531 16.007,13.968 L16.007,2.067 C16.007,1.504 15.805,1.021 15.403,0.618 Z" class="cls-1"/>
</svg>
