<svg xmlns="http://www.w3.org/2000/svg" xmlns:xlink="http://www.w3.org/1999/xlink" preserveAspectRatio="xMidYMid" width="14" height="16" viewBox="0 0 14 16">
  <defs>
    <style>
      .cls-1 {
        fill: #cfcfcf;
        fill-rule: evenodd;
      }
    </style>
  </defs>
  <path d="M13.966,9.666 C13.630,13.219 10.640,15.999 7.000,15.999 C3.134,15.999 -0.000,12.865 -0.000,8.999 C-0.000,5.829 2.109,3.157 5.000,2.295 L5.000,1.499 C5.000,0.671 5.671,-0.001 6.500,-0.001 C6.577,-0.001 6.643,0.032 6.717,0.043 L10.849,2.867 C10.940,3.060 10.999,3.271 10.999,3.499 C10.999,3.727 10.940,3.938 10.849,4.132 L6.717,6.956 C6.643,6.967 6.577,6.999 6.500,6.999 C5.689,6.999 5.037,6.353 5.010,5.549 C3.813,6.240 2.999,7.518 2.999,8.999 C2.999,11.209 4.790,12.999 7.000,12.999 C9.209,12.999 10.999,11.209 10.999,8.999 C10.999,8.999 11.331,7.999 12.500,7.999 C13.668,7.999 14.000,8.999 14.000,8.999 C14.000,9.343 13.961,9.709 13.966,9.666 Z" class="cls-1"/>
</svg>
