<svg xmlns="http://www.w3.org/2000/svg" xmlns:xlink="http://www.w3.org/1999/xlink" preserveAspectRatio="xMidYMid" width="16" height="16" viewBox="0 0 16 16">
  <defs>
    <style>
      .cls-1 {
        fill: #cfcfcf;
        fill-rule: evenodd;
      }
    </style>
  </defs>
  <path d="M14.000,15.999 L2.000,15.999 C0.895,15.999 -0.000,15.104 -0.000,13.999 L-0.000,4.999 C-0.000,3.895 0.895,2.999 2.000,2.999 L4.000,2.999 L4.000,1.999 C4.000,0.895 4.895,-0.001 6.000,-0.001 L10.000,-0.001 C11.104,-0.001 12.000,0.895 12.000,1.999 L12.000,2.999 L14.000,2.999 C15.104,2.999 16.000,3.895 16.000,4.999 L16.000,13.999 C16.000,15.104 15.104,15.999 14.000,15.999 ZM9.500,1.999 L6.500,1.999 C6.224,1.999 6.000,2.223 6.000,2.499 C6.000,2.775 6.224,2.999 6.500,2.999 L9.500,2.999 C9.776,2.999 10.000,2.775 10.000,2.499 C10.000,2.223 9.776,1.999 9.500,1.999 ZM13.000,4.999 L3.000,4.999 C2.447,4.999 2.000,5.447 2.000,5.999 C2.000,6.552 2.447,6.999 3.000,6.999 L13.000,6.999 C13.552,6.999 14.000,6.552 14.000,5.999 C14.000,5.447 13.552,4.999 13.000,4.999 ZM14.000,9.999 C14.000,9.447 13.552,8.999 13.000,8.999 L12.000,8.999 L12.000,9.999 C12.000,10.551 11.552,10.999 11.000,10.999 C10.447,10.999 10.000,10.551 10.000,9.999 L10.000,8.999 L6.000,8.999 L6.000,9.999 C6.000,10.551 5.552,10.999 5.000,10.999 C4.447,10.999 4.000,10.551 4.000,9.999 L4.000,8.999 L3.000,8.999 C2.447,8.999 2.000,9.447 2.000,9.999 L2.000,12.999 C2.000,13.552 2.447,13.999 3.000,13.999 L13.000,13.999 C13.552,13.999 14.000,13.552 14.000,12.999 L14.000,9.999 Z" class="cls-1"/>
</svg>
