<svg xmlns="http://www.w3.org/2000/svg" xmlns:xlink="http://www.w3.org/1999/xlink" preserveAspectRatio="xMidYMid" width="34" height="20" viewBox="0 0 34 20">
  <defs>
    <style>
      .cls-1 {
        fill: #656565;
        fill-rule: evenodd;
      }
    </style>
  </defs>
  <path d="M32.944,15.500 L32.982,15.500 C32.994,15.500 33.011,15.499 33.024,15.505 C33.033,15.511 33.040,15.522 33.040,15.534 C33.040,15.547 33.034,15.561 33.024,15.567 C33.011,15.573 32.995,15.573 32.983,15.573 L32.944,15.573 L32.944,15.500 L32.944,15.500 ZM32.944,15.621 L32.994,15.621 L33.038,15.733 L33.113,15.733 L33.060,15.608 C33.090,15.596 33.111,15.567 33.111,15.536 C33.111,15.507 33.096,15.478 33.074,15.463 C33.052,15.447 33.025,15.447 32.999,15.447 L32.877,15.447 L32.877,15.733 L32.944,15.733 L32.944,15.621 L32.944,15.621 ZM32.990,15.838 C33.128,15.838 33.241,15.727 33.241,15.592 C33.241,15.456 33.128,15.346 32.990,15.346 C32.852,15.346 32.739,15.456 32.739,15.592 C32.739,15.727 32.852,15.838 32.990,15.838 L32.990,15.838 ZM32.660,15.592 C32.660,15.413 32.808,15.268 32.990,15.268 C33.171,15.268 33.318,15.413 33.318,15.592 C33.318,15.769 33.171,15.916 32.990,15.916 C32.808,15.916 32.660,15.769 32.660,15.592 L32.660,15.592 ZM32.944,12.192 L32.979,12.192 C32.993,12.192 33.011,12.189 33.024,12.195 C33.033,12.203 33.040,12.214 33.040,12.225 C33.040,12.237 33.034,12.251 33.024,12.258 C33.010,12.264 32.995,12.264 32.982,12.264 L32.944,12.264 L32.944,12.192 L32.944,12.192 ZM32.944,12.314 L32.994,12.314 L33.038,12.423 L33.113,12.423 L33.060,12.300 C33.090,12.287 33.111,12.258 33.111,12.226 C33.111,12.198 33.096,12.169 33.073,12.156 C33.052,12.141 33.025,12.141 32.999,12.141 L32.877,12.141 L32.877,12.423 L32.944,12.423 L32.944,12.314 L32.944,12.314 ZM32.738,12.283 C32.738,12.148 32.851,12.037 32.989,12.037 C33.128,12.037 33.238,12.148 33.238,12.283 C33.238,12.417 33.128,12.528 32.989,12.528 C32.851,12.528 32.738,12.417 32.738,12.283 L32.738,12.283 ZM32.989,12.606 C33.171,12.606 33.318,12.460 33.318,12.283 C33.318,12.104 33.171,11.960 32.989,11.960 C32.806,11.960 32.660,12.104 32.660,12.283 C32.660,12.460 32.806,12.606 32.989,12.606 L32.989,12.606 ZM18.211,8.516 C18.080,9.730 17.847,10.956 17.664,12.169 L17.616,12.432 L18.666,12.432 C19.041,10.037 19.132,9.570 19.719,9.629 C19.814,9.138 19.988,8.708 20.117,8.492 C19.679,8.404 19.432,8.647 19.113,9.110 C19.137,8.911 19.184,8.715 19.174,8.516 L18.211,8.516 L18.211,8.516 ZM27.378,8.516 C27.247,9.730 27.014,10.956 26.831,12.169 L26.783,12.432 L27.831,12.432 C28.207,10.037 28.298,9.570 28.886,9.629 C28.980,9.138 29.154,8.708 29.285,8.492 C28.845,8.404 28.600,8.647 28.278,9.110 C28.304,8.911 28.350,8.715 28.342,8.516 L27.378,8.516 L27.378,8.516 ZM30.077,10.756 C30.077,9.986 30.413,9.440 30.890,9.440 C31.250,9.440 31.446,9.710 31.446,10.207 C31.446,10.984 31.103,11.528 30.614,11.528 C30.256,11.528 30.077,11.268 30.077,10.756 L30.077,10.756 ZM32.961,7.618 L31.925,7.618 L31.693,9.008 C31.406,8.638 31.099,8.475 30.692,8.475 C29.767,8.475 28.985,9.573 28.985,10.876 C28.985,11.854 29.489,12.501 30.251,12.501 C30.636,12.501 30.930,12.369 31.218,12.067 L31.169,12.432 L32.161,12.432 L32.961,7.618 L32.961,7.618 ZM9.576,9.755 C9.576,10.250 9.820,10.591 10.375,10.848 C10.799,11.044 10.865,11.102 10.865,11.280 C10.865,11.525 10.677,11.634 10.263,11.634 C9.950,11.634 9.659,11.587 9.323,11.480 C9.323,11.480 9.186,12.343 9.179,12.385 C9.417,12.435 9.630,12.482 10.270,12.501 C11.377,12.501 11.888,12.086 11.888,11.192 C11.888,10.653 11.674,10.337 11.148,10.100 C10.709,9.901 10.658,9.857 10.658,9.675 C10.658,9.462 10.833,9.354 11.172,9.354 C11.378,9.354 11.659,9.376 11.925,9.413 L12.075,8.505 C11.803,8.464 11.391,8.430 11.151,8.430 C9.978,8.430 9.572,9.031 9.576,9.755 L9.576,9.755 ZM16.546,10.019 C16.552,9.938 16.657,9.320 16.061,9.320 C15.729,9.320 15.492,9.570 15.394,10.019 L16.546,10.019 L16.546,10.019 ZM17.307,11.367 C16.932,11.539 16.595,11.615 16.222,11.615 C15.615,11.615 15.245,11.377 15.316,10.810 L17.392,10.810 C17.482,10.414 17.520,10.135 17.520,9.847 C17.520,8.980 16.972,8.430 16.111,8.430 C15.061,8.430 14.287,9.415 14.287,10.753 C14.287,11.900 14.896,12.499 16.063,12.501 C16.429,12.502 16.774,12.449 17.132,12.341 L17.307,11.367 L17.307,11.367 ZM13.926,11.507 C13.855,11.531 13.763,11.542 13.643,11.542 C13.394,11.542 13.284,11.454 13.284,11.254 C13.286,11.130 13.459,10.203 13.581,9.458 L14.116,9.458 L14.259,8.516 L13.724,8.516 L13.845,7.924 L12.803,7.924 C12.803,7.924 12.409,10.230 12.349,10.597 C12.282,11.013 12.197,11.467 12.204,11.641 C12.204,12.197 12.497,12.501 13.033,12.501 C13.276,12.501 13.500,12.462 13.786,12.373 L13.926,11.507 L13.926,11.507 ZM26.567,10.353 C26.620,10.026 26.655,9.778 26.653,9.577 C26.653,8.827 26.177,8.430 25.276,8.430 C24.888,8.430 24.543,8.486 24.021,8.637 C24.021,8.637 23.886,9.452 23.876,9.517 C24.051,9.461 24.473,9.336 24.986,9.341 C25.476,9.341 25.658,9.437 25.658,9.697 C25.658,9.766 25.649,9.823 25.618,9.951 C25.461,9.931 25.309,9.921 25.190,9.921 C24.026,9.921 23.349,10.475 23.349,11.430 C23.349,12.064 23.738,12.501 24.306,12.501 C24.786,12.501 25.141,12.347 25.406,12.027 L25.385,12.432 C25.385,12.432 26.115,12.432 26.254,12.432 C26.282,12.137 26.477,10.919 26.567,10.353 L26.567,10.353 ZM25.492,10.688 C25.382,10.676 25.334,10.672 25.258,10.672 C24.664,10.672 24.363,10.872 24.363,11.267 C24.363,11.512 24.509,11.667 24.739,11.667 C25.165,11.667 25.474,11.267 25.492,10.688 L25.492,10.688 ZM22.470,7.498 C21.080,7.498 20.108,8.699 20.108,10.421 C20.108,11.703 20.811,12.501 21.940,12.501 C22.231,12.501 22.481,12.462 22.867,12.358 L23.051,11.260 C22.703,11.430 22.418,11.508 22.160,11.508 C21.551,11.508 21.182,11.067 21.182,10.336 C21.182,9.277 21.730,8.532 22.513,8.532 C22.805,8.532 23.076,8.607 23.451,8.792 L23.622,7.746 C23.468,7.689 22.928,7.498 22.470,7.498 L22.470,7.498 ZM9.084,10.353 C9.136,10.026 9.170,9.778 9.169,9.577 C9.170,8.827 8.693,8.430 7.792,8.430 C7.405,8.430 7.060,8.486 6.537,8.637 C6.537,8.637 6.403,9.452 6.392,9.517 C6.566,9.461 6.990,9.336 7.501,9.341 C7.992,9.341 8.174,9.437 8.174,9.697 C8.174,9.766 8.166,9.823 8.134,9.951 C7.977,9.931 7.824,9.921 7.706,9.921 C6.543,9.921 5.865,10.475 5.865,11.430 C5.865,12.064 6.255,12.501 6.823,12.501 C7.303,12.501 7.657,12.347 7.922,12.027 L7.902,12.432 C7.902,12.432 8.631,12.432 8.771,12.432 C8.798,12.137 8.994,10.919 9.084,10.353 L9.084,10.353 ZM8.008,10.688 C7.898,10.676 7.849,10.672 7.774,10.672 C7.180,10.672 6.879,10.872 6.879,11.267 C6.879,11.512 7.026,11.667 7.255,11.667 C7.682,11.667 7.990,11.267 8.008,10.688 L8.008,10.688 ZM6.058,7.618 L4.430,7.618 L3.412,10.598 L3.370,7.618 L1.862,7.618 L1.043,12.432 L2.024,12.432 L2.656,8.752 L2.744,12.432 L3.458,12.432 L4.800,8.731 L4.198,12.432 L5.248,12.432 L6.058,7.618 L6.058,7.618 ZM33.994,9.998 C33.994,15.517 29.441,19.992 23.825,19.992 C21.525,19.992 19.402,19.240 17.698,17.974 C17.698,17.974 17.698,17.974 17.699,17.974 C19.130,16.669 20.207,15.000 20.782,13.117 L19.836,13.117 C19.280,14.783 18.291,16.256 17.000,17.406 C15.709,16.256 14.720,14.783 14.164,13.117 L13.218,13.117 C13.792,15.000 14.871,16.669 16.300,17.974 L16.300,17.974 C14.597,19.240 12.475,19.992 10.174,19.992 C4.558,19.992 0.006,15.517 0.006,9.998 C0.006,4.481 4.558,0.007 10.174,0.007 C12.475,0.007 14.597,0.757 16.300,2.024 L16.300,2.024 C14.781,3.410 13.655,5.209 13.115,7.238 L14.051,7.238 C14.580,5.426 15.616,3.825 17.000,2.593 C18.383,3.825 19.420,5.426 19.950,7.238 L20.886,7.238 C20.344,5.209 19.219,3.410 17.699,2.024 C17.698,2.024 17.698,2.024 17.698,2.024 C19.402,0.757 21.525,0.007 23.825,0.007 C29.441,0.007 33.994,4.481 33.994,9.998 L33.994,9.998 Z" class="cls-1"/>
</svg>
