<svg xmlns="http://www.w3.org/2000/svg" xmlns:xlink="http://www.w3.org/1999/xlink" preserveAspectRatio="xMidYMid" width="16" height="16" viewBox="0 0 16 16">
  <defs>
    <style>
      .cls-1 {
        fill: #cfcfcf;
        fill-rule: evenodd;
      }
    </style>
  </defs>
  <path d="M14.000,8.000 L13.667,8.000 L9.000,11.000 L8.333,8.000 L8.000,8.000 C6.895,8.000 6.000,7.104 6.000,6.000 L6.000,2.000 C6.000,0.895 6.895,-0.000 8.000,-0.000 L14.000,-0.000 C15.105,-0.000 16.000,0.895 16.000,2.000 L16.000,6.000 C16.000,7.104 15.105,8.000 14.000,8.000 ZM14.000,2.007 L8.000,2.007 L8.000,6.006 L10.027,6.006 L10.546,8.024 L12.926,6.006 L14.000,6.006 L14.000,2.007 ZM2.000,11.006 L4.027,11.006 L4.546,13.024 L6.926,11.006 L7.754,11.006 L8.193,12.980 C8.128,12.987 8.066,13.000 8.000,13.000 L7.667,13.000 L3.000,16.000 L2.333,13.000 L2.000,13.000 C0.896,13.000 -0.000,12.104 -0.000,11.000 L-0.000,7.000 C-0.000,5.895 0.896,5.000 2.000,5.000 L5.000,5.000 L5.000,7.004 C5.000,7.005 5.000,7.006 5.000,7.007 L2.000,7.007 L2.000,11.006 Z" class="cls-1"/>
</svg>
