<svg xmlns="http://www.w3.org/2000/svg" xmlns:xlink="http://www.w3.org/1999/xlink" preserveAspectRatio="xMidYMid" width="57.281" height="15.25" viewBox="0 0 57.281 15.25">
  <defs>
    <style>
      .cls-1 {
        fill: #656565;
        fill-rule: evenodd;
      }
    </style>
  </defs>
  <path d="M55.529,11.604 C55.499,11.756 55.499,11.918 55.421,12.055 C55.318,12.247 55.108,12.377 54.889,12.378 C54.265,12.378 53.642,12.379 53.017,12.377 C52.802,12.378 52.624,12.161 52.662,11.951 C53.270,8.083 53.880,4.216 54.487,0.347 C54.501,0.168 54.656,0.010 54.838,0.004 C55.534,-0.001 56.231,0.003 56.927,0.002 C57.155,0.001 57.342,0.231 57.290,0.454 C56.703,4.171 56.114,7.887 55.529,11.604 ZM51.226,11.682 C51.207,11.786 51.201,11.895 51.160,11.994 C51.069,12.223 50.833,12.382 50.587,12.378 C49.945,12.378 49.303,12.378 48.661,12.378 C48.487,12.384 48.326,12.251 48.294,12.082 C48.271,12.006 48.293,11.929 48.304,11.854 C48.331,11.691 48.355,11.527 48.385,11.365 C48.106,11.664 47.764,11.901 47.404,12.094 C46.865,12.380 46.260,12.542 45.650,12.570 C45.131,12.593 44.606,12.544 44.110,12.388 C43.675,12.252 43.267,12.021 42.942,11.700 C42.460,11.237 42.144,10.617 41.996,9.968 C41.829,9.250 41.864,8.495 42.036,7.781 C42.323,6.553 43.065,5.427 44.117,4.722 C44.597,4.396 45.138,4.162 45.703,4.034 C46.312,3.894 46.946,3.896 47.563,3.978 C48.061,4.052 48.570,4.195 48.967,4.519 C49.141,4.655 49.256,4.844 49.386,5.019 C49.416,4.823 49.445,4.628 49.478,4.433 C49.502,4.258 49.669,4.118 49.846,4.124 C50.559,4.124 51.273,4.124 51.987,4.124 C52.142,4.121 52.291,4.230 52.338,4.379 C52.375,4.482 52.344,4.592 52.330,4.696 C51.961,7.025 51.595,9.354 51.226,11.682 ZM48.978,7.438 C48.886,7.048 48.645,6.692 48.304,6.477 C47.870,6.200 47.328,6.149 46.827,6.222 C46.323,6.300 45.846,6.544 45.491,6.911 C45.126,7.285 44.896,7.782 44.827,8.298 C44.757,8.754 44.824,9.248 45.093,9.631 C45.341,9.990 45.754,10.206 46.179,10.273 C46.754,10.367 47.365,10.268 47.869,9.971 C48.272,9.734 48.598,9.370 48.795,8.947 C49.009,8.480 49.102,7.943 48.978,7.438 ZM41.843,6.009 C41.515,6.617 41.032,7.146 40.443,7.511 C39.766,7.935 38.975,8.144 38.185,8.219 C37.701,8.270 37.214,8.246 36.730,8.251 C36.475,8.254 36.220,8.245 35.966,8.256 C35.690,8.267 35.439,8.487 35.394,8.759 C35.229,9.792 35.067,10.826 34.903,11.860 C34.886,11.955 34.883,12.056 34.837,12.143 C34.767,12.283 34.616,12.377 34.460,12.377 C33.738,12.379 33.017,12.377 32.296,12.378 C32.192,12.378 32.081,12.388 31.986,12.337 C31.838,12.263 31.757,12.085 31.792,11.923 C32.380,8.213 32.965,4.503 33.550,0.793 C33.576,0.656 33.581,0.515 33.632,0.385 C33.708,0.200 33.880,0.061 34.075,0.016 C34.272,-0.013 34.472,0.008 34.671,0.001 C35.805,0.002 36.940,0.001 38.074,0.001 C38.586,0.004 39.101,-0.011 39.610,0.063 C40.308,0.156 41.013,0.367 41.572,0.811 C41.911,1.079 42.176,1.440 42.335,1.842 C42.586,2.469 42.596,3.165 42.512,3.828 C42.408,4.583 42.212,5.336 41.843,6.009 ZM38.870,2.852 C38.649,2.653 38.351,2.571 38.063,2.530 C37.612,2.468 37.156,2.488 36.702,2.484 C36.547,2.480 36.400,2.585 36.351,2.732 C36.329,2.805 36.321,2.882 36.309,2.957 C36.161,3.895 36.011,4.833 35.864,5.772 C36.486,5.762 37.115,5.807 37.732,5.705 C38.130,5.638 38.531,5.470 38.787,5.146 C39.089,4.769 39.188,4.273 39.209,3.801 C39.222,3.459 39.137,3.085 38.870,2.852 ZM24.738,15.001 C24.654,15.112 24.534,15.219 24.389,15.227 C24.407,15.235 24.443,15.252 24.461,15.260 C23.629,15.263 22.797,15.267 21.965,15.259 C21.903,15.212 21.829,15.179 21.785,15.113 C21.688,14.983 21.686,14.791 21.785,14.663 C22.409,13.783 23.034,12.903 23.657,12.023 C23.772,11.866 23.879,11.703 23.998,11.548 C23.652,10.505 23.289,9.467 22.938,8.426 C22.520,7.200 22.102,5.976 21.685,4.750 C21.650,4.649 21.601,4.544 21.625,4.435 C21.650,4.268 21.803,4.128 21.974,4.124 C22.687,4.124 23.400,4.124 24.113,4.124 C24.382,4.121 24.635,4.319 24.704,4.578 C25.119,5.966 25.536,7.353 25.951,8.741 C26.932,7.297 27.914,5.854 28.894,4.410 C29.015,4.218 29.244,4.107 29.470,4.124 C30.166,4.125 30.863,4.124 31.559,4.124 C31.643,4.121 31.727,4.147 31.794,4.199 C31.947,4.311 31.987,4.547 31.879,4.703 C29.500,8.137 27.119,11.569 24.738,15.001 ZM19.421,11.841 C19.394,12.060 19.240,12.254 19.036,12.334 C18.913,12.385 18.777,12.379 18.647,12.378 C18.049,12.377 17.452,12.380 16.854,12.376 C16.653,12.370 16.485,12.175 16.508,11.976 C16.531,11.776 16.579,11.580 16.593,11.379 C15.867,12.118 14.841,12.539 13.810,12.573 C13.311,12.587 12.806,12.539 12.329,12.388 C11.901,12.254 11.499,12.026 11.176,11.713 C10.834,11.388 10.574,10.984 10.398,10.549 C10.147,9.925 10.067,9.240 10.126,8.573 C10.221,7.523 10.618,6.495 11.290,5.679 C11.869,4.969 12.651,4.422 13.526,4.143 C14.231,3.909 14.989,3.878 15.722,3.970 C16.248,4.041 16.790,4.186 17.203,4.534 C17.369,4.668 17.482,4.850 17.606,5.021 C17.637,4.825 17.666,4.629 17.699,4.433 C17.723,4.259 17.891,4.119 18.066,4.124 C18.780,4.124 19.493,4.124 20.207,4.124 C20.361,4.122 20.509,4.229 20.557,4.375 C20.593,4.472 20.569,4.576 20.553,4.675 C20.175,7.064 19.800,9.453 19.421,11.841 ZM17.181,7.373 C17.073,6.977 16.804,6.626 16.443,6.428 C16.022,6.194 15.518,6.153 15.049,6.222 C14.550,6.299 14.078,6.537 13.724,6.897 C13.367,7.258 13.137,7.735 13.057,8.234 C12.976,8.692 13.026,9.190 13.283,9.586 C13.503,9.931 13.874,10.160 14.269,10.247 C14.868,10.381 15.519,10.294 16.055,9.991 C16.469,9.757 16.805,9.391 17.008,8.962 C17.237,8.472 17.333,7.900 17.181,7.373 ZM9.641,6.643 C9.299,7.069 8.866,7.422 8.380,7.672 C7.649,8.052 6.823,8.211 6.005,8.246 C5.408,8.259 4.811,8.245 4.213,8.253 C4.009,8.257 3.811,8.365 3.701,8.538 C3.615,8.665 3.604,8.821 3.580,8.968 C3.427,9.937 3.275,10.906 3.121,11.875 C3.073,12.157 2.808,12.380 2.521,12.378 C1.809,12.378 1.097,12.378 0.384,12.378 C0.226,12.383 0.076,12.274 0.026,12.125 C-0.030,11.970 0.045,11.812 0.055,11.656 C0.640,7.957 1.223,4.258 1.808,0.559 C1.831,0.267 2.097,0.013 2.390,0.006 C3.895,-0.006 5.399,0.004 6.903,0.001 C7.449,0.004 7.995,0.060 8.523,0.200 C9.001,0.329 9.467,0.535 9.847,0.857 C10.232,1.177 10.507,1.621 10.644,2.101 C10.828,2.738 10.803,3.417 10.696,4.066 C10.546,4.988 10.234,5.909 9.641,6.643 ZM7.362,3.272 C7.287,3.037 7.119,2.836 6.902,2.718 C6.647,2.578 6.355,2.530 6.068,2.505 C5.688,2.476 5.306,2.486 4.925,2.484 C4.789,2.480 4.658,2.559 4.595,2.678 C4.552,2.755 4.548,2.844 4.533,2.929 C4.384,3.877 4.234,4.824 4.083,5.772 C4.574,5.767 5.066,5.786 5.556,5.753 C5.992,5.721 6.449,5.634 6.798,5.354 C7.123,5.099 7.296,4.701 7.372,4.305 C7.435,3.965 7.469,3.606 7.362,3.272 Z" class="cls-1"/>
</svg>
