<svg xmlns="http://www.w3.org/2000/svg" xmlns:xlink="http://www.w3.org/1999/xlink" preserveAspectRatio="xMidYMid" width="11" height="8" viewBox="0 0 11 8">
  <defs>
    <style>
      .cls-1 {
        fill: #fff;
        fill-rule: evenodd;
      }
    </style>
  </defs>
  <path d="M10.997,3.984 C10.997,3.989 11.000,3.994 11.000,4.000 C11.000,4.336 10.823,4.619 10.568,4.801 L7.687,7.694 C7.296,8.086 6.663,8.086 6.273,7.694 C5.882,7.303 5.882,6.669 6.273,6.278 L7.544,5.000 L1.000,5.000 C0.448,5.000 -0.000,4.552 -0.000,4.000 C-0.000,3.447 0.448,3.000 1.000,3.000 L7.620,3.000 L6.281,1.690 C5.890,1.299 5.890,0.665 6.281,0.274 C6.672,-0.118 7.305,-0.118 7.695,0.274 L10.711,3.240 C10.898,3.428 11.004,3.683 11.004,3.949 C11.004,3.961 10.997,3.972 10.997,3.984 Z" class="cls-1"/>
</svg>
