<svg xmlns="http://www.w3.org/2000/svg" xmlns:xlink="http://www.w3.org/1999/xlink" preserveAspectRatio="xMidYMid" width="13" height="16" viewBox="0 0 13 16">
  <defs>
    <style>
      .cls-1 {
        fill: #fff;
        fill-rule: evenodd;
      }
    </style>
  </defs>
  <path d="M13.000,6.623 C13.000,2.962 10.089,-0.006 6.500,-0.006 C2.910,-0.006 -0.000,2.962 -0.000,6.623 C-0.000,6.739 0.011,6.852 0.017,6.965 C0.011,7.021 -0.000,7.076 -0.000,7.133 C-0.000,11.213 6.000,15.834 6.000,15.834 C6.000,15.834 6.500,16.217 6.999,15.834 C7.499,15.452 13.000,11.213 13.000,7.133 C13.000,7.076 12.988,7.021 12.982,6.965 C12.988,6.852 13.000,6.739 13.000,6.623 ZM6.500,9.173 C5.119,9.173 4.000,8.032 4.000,6.623 C4.000,5.215 5.119,4.073 6.500,4.073 C7.880,4.073 8.999,5.215 8.999,6.623 C8.999,8.032 7.880,9.173 6.500,9.173 Z" class="cls-1"/>
</svg>
