<svg xmlns="http://www.w3.org/2000/svg" xmlns:xlink="http://www.w3.org/1999/xlink" preserveAspectRatio="xMidYMid" width="41.813" height="13.53" viewBox="0 0 41.813 13.53">
  <defs>
    <style>
      .cls-1 {
        fill: #656565;
        fill-rule: evenodd;
      }
    </style>
  </defs>
  <path d="M38.680,13.355 C38.680,13.355 38.369,11.846 38.268,11.389 C37.774,11.389 34.320,11.382 33.932,11.382 C33.801,11.737 33.221,13.355 33.221,13.355 L29.664,13.355 L34.692,1.329 C35.047,0.474 35.655,0.242 36.467,0.242 L39.083,0.242 L41.822,13.355 L38.680,13.355 ZM36.933,4.910 L36.704,3.779 C36.533,4.270 36.235,5.065 36.255,5.030 C36.255,5.030 35.187,7.943 34.906,8.698 C35.568,8.698 37.190,8.698 37.717,8.698 C37.582,8.042 36.933,4.910 36.933,4.910 ZM29.636,3.245 C29.011,2.979 28.210,2.723 27.103,2.741 C25.777,2.741 25.164,3.325 25.163,3.870 C25.155,4.486 25.881,4.889 27.064,5.498 C29.018,6.434 29.919,7.567 29.908,9.063 C29.881,11.786 27.569,13.545 24.012,13.545 C22.493,13.528 21.030,13.211 20.240,12.846 L20.714,9.909 L21.149,10.117 C22.263,10.607 22.983,10.806 24.338,10.806 C25.312,10.806 26.355,10.403 26.364,9.524 C26.370,8.950 25.926,8.539 24.607,7.896 C23.324,7.269 21.621,6.217 21.642,4.331 C21.662,1.781 24.018,0.000 27.365,0.000 C28.676,0.000 29.729,0.287 30.399,0.551 L29.940,3.395 L29.636,3.245 ZM14.734,13.351 L16.851,0.229 L20.237,0.229 L18.119,13.351 L14.734,13.351 ZM6.567,13.339 L3.810,2.902 C5.771,3.708 7.515,5.460 8.225,7.368 L8.580,9.186 L11.894,0.240 L15.481,0.240 L10.150,13.337 L6.567,13.339 ZM0.000,0.502 L0.046,0.231 L5.504,0.231 C6.240,0.260 6.835,0.506 7.039,1.338 L8.225,7.367 C6.831,3.496 3.756,1.449 0.000,0.502 Z" class="cls-1"/>
</svg>
