<svg xmlns="http://www.w3.org/2000/svg" xmlns:xlink="http://www.w3.org/1999/xlink" preserveAspectRatio="xMidYMid" width="14" height="16" viewBox="0 0 14 16">
  <defs>
    <style>
      .cls-1 {
        fill: #fff;
        fill-rule: evenodd;
      }
    </style>
  </defs>
  <path d="M13.544,8.816 L13.554,8.831 L7.554,12.831 L7.544,12.816 C7.385,12.923 7.205,12.999 7.000,12.999 C6.794,12.999 6.614,12.923 6.455,12.816 L6.445,12.831 L0.445,8.831 L0.455,8.816 C0.187,8.636 -0.000,8.346 -0.000,7.999 C-0.000,7.447 0.447,6.999 1.000,6.999 C1.205,6.999 1.385,7.076 1.544,7.183 L1.554,7.167 L7.000,10.797 L12.445,7.167 L12.455,7.183 C12.614,7.076 12.794,6.999 13.000,6.999 C13.552,6.999 14.000,7.447 14.000,7.999 C14.000,8.346 13.812,8.636 13.544,8.816 ZM13.544,5.816 L13.554,5.831 L7.554,9.831 L7.544,9.816 C7.385,9.922 7.205,9.999 7.000,9.999 C6.794,9.999 6.614,9.922 6.455,9.816 L6.445,9.831 L0.445,5.831 L0.455,5.816 C0.187,5.636 -0.000,5.346 -0.000,4.999 C-0.000,4.653 0.187,4.362 0.455,4.183 L0.445,4.167 L6.445,0.167 L6.455,0.182 C6.614,0.076 6.794,-0.001 7.000,-0.001 C7.205,-0.001 7.385,0.076 7.544,0.182 L7.554,0.167 L13.554,4.167 L13.544,4.183 C13.812,4.362 14.000,4.653 14.000,4.999 C14.000,5.346 13.812,5.636 13.544,5.816 ZM7.000,2.201 L2.803,4.999 L7.000,7.797 L9.710,5.991 L11.197,4.999 L7.000,2.201 ZM1.000,9.999 C1.205,9.999 1.385,10.076 1.544,10.183 L1.554,10.167 L7.000,13.798 L12.445,10.167 L12.455,10.183 C12.614,10.076 12.794,9.999 13.000,9.999 C13.552,9.999 14.000,10.447 14.000,10.999 C14.000,11.346 13.812,11.636 13.544,11.816 L13.554,11.831 L7.554,15.831 L7.544,15.816 C7.385,15.922 7.205,15.999 7.000,15.999 C6.794,15.999 6.614,15.922 6.455,15.816 L6.445,15.831 L0.445,11.831 L0.455,11.816 C0.187,11.636 -0.000,11.346 -0.000,10.999 C-0.000,10.447 0.447,9.999 1.000,9.999 Z" class="cls-1"/>
</svg>
