<svg xmlns="http://www.w3.org/2000/svg" xmlns:xlink="http://www.w3.org/1999/xlink" preserveAspectRatio="xMidYMid" width="14" height="15" viewBox="0 0 14 15">
  <defs>
    <style>
      .cls-1 {
        fill: #222;
        fill-rule: evenodd;
      }
    </style>
  </defs>
  <path d="M12.999,14.999 C12.447,14.999 11.999,14.551 11.999,13.999 C11.999,12.561 11.384,11.274 10.413,10.362 C9.518,11.370 8.323,11.999 6.999,11.999 C5.676,11.999 4.480,11.370 3.586,10.362 C2.615,11.274 1.999,12.561 1.999,13.999 L1.999,13.999 C1.999,14.551 1.552,14.999 0.999,14.999 C0.447,14.999 -0.000,14.551 -0.000,13.999 C-0.000,11.840 0.998,9.933 2.535,8.649 C2.203,7.847 1.999,6.955 1.999,5.999 C1.999,2.685 4.238,-0.001 6.999,-0.001 C9.761,-0.001 11.999,2.685 11.999,5.999 C11.999,6.955 11.796,7.847 11.464,8.649 C13.001,9.933 13.999,11.840 13.999,13.999 L13.999,13.999 C13.999,14.551 13.552,14.999 12.999,14.999 ZM6.999,1.999 C5.343,1.999 3.999,3.790 3.999,5.999 C3.999,8.208 5.343,9.999 6.999,9.999 C8.656,9.999 9.999,8.208 9.999,5.999 C9.999,3.790 8.656,1.999 6.999,1.999 Z" class="cls-1"/>
</svg>
