<svg xmlns="http://www.w3.org/2000/svg" xmlns:xlink="http://www.w3.org/1999/xlink" preserveAspectRatio="xMidYMid" width="12" height="16" viewBox="0 0 12 16">
  <defs>
    <style>
      .cls-1 {
        fill: #222;
        fill-rule: evenodd;
      }
    </style>
  </defs>
  <path d="M6.000,16.000 C6.000,16.000 -0.000,9.314 -0.000,6.000 C-0.000,2.686 2.686,-0.000 6.000,-0.000 C9.314,-0.000 12.000,2.686 12.000,6.000 C12.000,9.314 6.000,16.000 6.000,16.000 ZM6.020,2.005 C3.815,2.005 2.020,3.799 2.020,6.005 C2.020,7.280 3.900,10.257 6.020,12.908 C8.141,10.257 10.020,7.280 10.020,6.005 C10.020,3.799 8.227,2.005 6.020,2.005 ZM5.000,6.000 C5.000,5.448 5.448,5.000 6.000,5.000 C6.552,5.000 7.000,5.448 7.000,6.000 C7.000,6.552 6.552,7.000 6.000,7.000 C5.448,7.000 5.000,6.552 5.000,6.000 Z" class="cls-1"/>
</svg>
