<svg xmlns="http://www.w3.org/2000/svg" xmlns:xlink="http://www.w3.org/1999/xlink" preserveAspectRatio="xMidYMid" width="16" height="14" viewBox="0 0 16 14">
  <defs>
    <style>
      .cls-1 {
        fill: #cdcdcd;
        fill-rule: evenodd;
      }
    </style>
  </defs>
  <path d="M16.000,3.999 C16.000,4.231 15.908,4.433 15.776,4.603 L15.789,4.613 L8.789,13.613 L8.776,13.603 C8.593,13.838 8.321,13.999 8.000,13.999 C7.679,13.999 7.406,13.838 7.223,13.603 L7.210,13.613 L0.210,4.613 L0.223,4.603 C0.091,4.433 -0.000,4.231 -0.000,3.999 C-0.000,3.723 0.112,3.473 0.293,3.292 L0.293,3.292 L3.293,0.292 L3.293,0.292 C3.474,0.111 3.724,-0.001 4.000,-0.001 L12.000,-0.001 C12.276,-0.001 12.526,0.111 12.707,0.292 L12.707,0.292 L15.707,3.292 L15.707,3.292 C15.888,3.473 16.000,3.723 16.000,3.999 ZM11.586,1.999 L4.414,1.999 L2.331,4.082 L8.000,11.370 L13.669,4.082 L11.586,1.999 Z" class="cls-1"/>
</svg>
