<svg xmlns="http://www.w3.org/2000/svg" xmlns:xlink="http://www.w3.org/1999/xlink" preserveAspectRatio="xMidYMid" width="16" height="16" viewBox="0 0 16 16">
  <defs>
    <style>
      .cls-1 {
        fill: #d5d5d5;
        fill-rule: evenodd;
      }
    </style>
  </defs>
  <path d="M14.000,15.999 L5.000,15.999 L5.000,15.999 L2.000,15.999 C0.895,15.999 0.000,15.104 0.000,14.000 L0.000,6.000 C0.000,4.895 0.895,3.999 2.000,3.999 L3.000,3.999 L3.000,1.999 C3.000,0.895 3.895,-0.000 5.000,-0.000 L14.000,-0.000 C15.104,-0.000 16.000,0.895 16.000,1.999 L16.000,14.000 C16.000,15.104 15.104,15.999 14.000,15.999 ZM14.000,3.000 C14.000,2.447 13.552,1.999 13.000,1.999 L6.000,1.999 C5.448,1.999 5.000,2.447 5.000,3.000 L5.000,11.999 C5.000,12.552 4.552,12.999 4.000,12.999 C3.448,12.999 3.000,12.552 3.000,11.999 L3.000,6.000 L3.000,6.000 C2.448,6.000 2.000,6.447 2.000,6.999 L2.000,12.999 C2.000,13.552 2.448,14.000 3.000,14.000 L3.000,14.000 L3.000,14.000 L6.000,14.000 L6.000,14.000 L13.000,14.000 C13.552,14.000 14.000,13.552 14.000,12.999 L14.000,3.000 ZM7.000,10.000 L12.000,10.000 L12.000,11.999 L7.000,11.999 L7.000,10.000 ZM7.000,6.999 L12.000,6.999 L12.000,8.999 L7.000,8.999 L7.000,6.999 ZM7.000,3.999 L12.000,3.999 L12.000,6.000 L7.000,6.000 L7.000,3.999 Z" class="cls-1"/>
</svg>
