<svg xmlns="http://www.w3.org/2000/svg" xmlns:xlink="http://www.w3.org/1999/xlink" preserveAspectRatio="xMidYMid" width="13" height="13" viewBox="0 0 13 13">
  <defs>
    <style>
      .cls-1 {
        fill: #222;
        fill-rule: evenodd;
      }
    </style>
  </defs>
  <path d="M1.500,-0.001 L11.500,-0.001 C12.328,-0.001 13.000,0.671 13.000,1.500 C13.000,2.328 12.328,2.999 11.500,2.999 L1.500,2.999 C0.672,2.999 -0.000,2.328 -0.000,1.500 C-0.000,0.671 0.672,-0.001 1.500,-0.001 ZM1.500,4.999 L11.500,4.999 C12.328,4.999 13.000,5.671 13.000,6.499 C13.000,7.328 12.328,8.000 11.500,8.000 L1.500,8.000 C0.672,8.000 -0.000,7.328 -0.000,6.499 C-0.000,5.671 0.672,4.999 1.500,4.999 ZM1.500,9.999 L11.500,9.999 C12.328,9.999 13.000,10.671 13.000,11.499 C13.000,12.328 12.328,13.000 11.500,13.000 L1.500,13.000 C0.672,13.000 -0.000,12.328 -0.000,11.499 C-0.000,10.671 0.672,9.999 1.500,9.999 Z" class="cls-1"/>
</svg>
