<svg xmlns="http://www.w3.org/2000/svg" xmlns:xlink="http://www.w3.org/1999/xlink" preserveAspectRatio="xMidYMid" width="24" height="34" viewBox="0 0 24 34">
  <defs>
    <style>
      .cls-1 {
        fill: #18191a;
        fill-rule: evenodd;
      }
    </style>
  </defs>
  <path d="M12.000,33.998 L12.000,28.998 C15.970,28.998 19.000,26.015 19.000,21.998 C19.000,17.981 15.970,14.999 12.000,14.999 L12.000,9.999 C18.617,9.999 24.000,15.303 24.000,21.998 C24.000,28.694 18.617,33.998 12.000,33.998 ZM5.000,11.998 C5.000,16.016 8.030,18.998 12.000,18.998 L12.000,23.998 C5.383,23.998 0.000,18.694 0.000,11.998 C0.000,5.303 5.383,-0.001 12.000,-0.001 L12.000,4.999 C8.030,4.999 5.000,7.981 5.000,11.998 Z" class="cls-1"/>
</svg>
