<svg xmlns="http://www.w3.org/2000/svg" xmlns:xlink="http://www.w3.org/1999/xlink" preserveAspectRatio="xMidYMid" width="23" height="30" viewBox="0 0 23 30">
  <defs>
    <style>
      .cls-1 {
        fill: #18191a;
        fill-rule: evenodd;
      }
    </style>
  </defs>
  <path d="M22.500,30.000 L21.500,30.000 C21.224,30.000 21.000,29.776 21.000,29.500 L21.000,0.500 C21.000,0.224 21.224,-0.000 21.500,-0.000 L22.500,-0.000 C22.776,-0.000 23.000,0.224 23.000,0.500 L23.000,29.500 C23.000,29.776 22.776,30.000 22.500,30.000 ZM15.500,30.000 L14.500,30.000 C14.224,30.000 14.000,29.776 14.000,29.500 L14.000,0.500 C14.000,0.224 14.224,-0.000 14.500,-0.000 L15.500,-0.000 C15.776,-0.000 16.000,0.224 16.000,0.500 L16.000,29.500 C16.000,29.776 15.776,30.000 15.500,30.000 ZM8.500,30.000 L7.500,30.000 C7.224,30.000 7.000,29.776 7.000,29.500 L7.000,0.500 C7.000,0.224 7.224,-0.000 7.500,-0.000 L8.500,-0.000 C8.776,-0.000 9.000,0.224 9.000,0.500 L9.000,29.500 C9.000,29.776 8.776,30.000 8.500,30.000 ZM1.500,30.000 L0.500,30.000 C0.224,30.000 0.000,29.776 0.000,29.500 L0.000,0.500 C0.000,0.224 0.224,-0.000 0.500,-0.000 L1.500,-0.000 C1.776,-0.000 2.000,0.224 2.000,0.500 L2.000,29.500 C2.000,29.776 1.776,30.000 1.500,30.000 Z" class="cls-1"/>
</svg>
