<svg xmlns="http://www.w3.org/2000/svg" xmlns:xlink="http://www.w3.org/1999/xlink" preserveAspectRatio="xMidYMid" width="30" height="23" viewBox="0 0 30 23">
  <defs>
    <style>
      .cls-1 {
        fill: #fff;
        fill-rule: evenodd;
      }
    </style>
  </defs>
  <path d="M29.500,23.000 L0.500,23.000 C0.224,23.000 0.000,22.776 0.000,22.500 L0.000,21.500 C0.000,21.224 0.224,21.000 0.500,21.000 L29.500,21.000 C29.776,21.000 30.000,21.224 30.000,21.500 L30.000,22.500 C30.000,22.776 29.776,23.000 29.500,23.000 ZM29.500,16.000 L0.500,16.000 C0.224,16.000 0.000,15.776 0.000,15.500 L0.000,14.500 C0.000,14.224 0.224,14.000 0.500,14.000 L29.500,14.000 C29.776,14.000 30.000,14.224 30.000,14.500 L30.000,15.500 C30.000,15.776 29.776,16.000 29.500,16.000 ZM29.500,9.000 L0.500,9.000 C0.224,9.000 0.000,8.776 0.000,8.500 L0.000,7.500 C0.000,7.224 0.224,7.000 0.500,7.000 L29.500,7.000 C29.776,7.000 30.000,7.224 30.000,7.500 L30.000,8.500 C30.000,8.776 29.776,9.000 29.500,9.000 ZM29.500,2.000 L0.500,2.000 C0.224,2.000 0.000,1.776 0.000,1.500 L0.000,0.500 C0.000,0.224 0.224,-0.000 0.500,-0.000 L29.500,-0.000 C29.776,-0.000 30.000,0.224 30.000,0.500 L30.000,1.500 C30.000,1.776 29.776,2.000 29.500,2.000 Z" class="cls-1"/>
</svg>
